<svg id="圖層_1" data-name="圖層 1" xmlns="http://www.w3.org/2000/svg" viewBox="0 0 566.93 566.93"><defs><style>.cls-1{fill:#dec394;}</style></defs><title>facebook_hover</title><path class="cls-1" d="M460.64,0q43.92,0,75.1,31.18t31.19,75.11V460.64q0,43.92-31.19,75.11t-75.1,31.19H391.25V347.32h73.42l11.07-85.64H391.25V207q0-20.7,8.68-31t33.79-10.35l45-.37V88.83q-23.24-3.31-65.67-3.32-50.18,0-80.25,29.53t-30.07,83.43v63.21H228.85v85.64h73.93V566.94H106.4q-43.92,0-75.12-31.19T.09,460.64V106.32q0-43.92,31.19-75.11T106.4,0Z"/></svg>