<svg id="Capa_1" data-name="Capa 1" xmlns="http://www.w3.org/2000/svg" viewBox="0 0 566.93 566.93"><defs><style>.cls-1{fill:#6d9ea5;}</style></defs><title>home</title><path class="cls-1" d="M557.39,252.12l-47.9-45.94V53.86c0-9.69-7.46-17.55-16.67-17.55H377.52c-9.21,0-16.67,7.85-16.67,17.55v9.76L303,8.14a27.89,27.89,0,0,0-39.17,0L9.44,252.12A31.51,31.51,0,0,0,1.91,285.8c4.37,11.87,15,19.55,27.11,19.55H69.65V549.8c0,9.69,7.47,17.55,16.68,17.55H225.77c9.2,0,16.67-7.86,16.67-17.55V401.38h81.95V549.8c0,9.69,7.47,17.55,16.68,17.55H480.5c9.21,0,16.67-7.85,16.67-17.55V305.35h40.64c12.1,0,22.74-7.68,27.12-19.55A31.53,31.53,0,0,0,557.39,252.12ZM480.5,270.25c-9.21,0-16.68,7.85-16.68,17.55V532.25H357.74V383.83c0-9.7-7.47-17.56-16.67-17.56H225.77c-9.21,0-16.68,7.86-16.68,17.56V532.25H103V287.8c0-9.7-7.46-17.55-16.67-17.55H40.05L283.42,36.84l82.87,79.49a16,16,0,0,0,18,3.08,17.63,17.63,0,0,0,9.94-16.06V71.41h81.95V213.93a18,18,0,0,0,5.44,13l45.19,43.34Z"/></svg>