<?xml version="1.0" encoding="utf-8"?>
<!-- Generator: Adobe Illustrator 22.0.1, SVG Export Plug-In . SVG Version: 6.00 Build 0)  -->
<svg version="1.1" id="圖層_1" xmlns="http://www.w3.org/2000/svg" xmlns:xlink="http://www.w3.org/1999/xlink" x="0px" y="0px"
	 viewBox="0 0 566.9 566.9" style="enable-background:new 0 0 566.9 566.9;" xml:space="preserve">
<style type="text/css">
	.st0{fill:#6D9EA5;}
</style>
<path class="st0" d="M413.5,0h-260C68.8,0,0,68.8,0,153.5v260c0,84.6,68.8,153.5,153.5,153.5h260c84.6,0,153.5-68.8,153.5-153.5
	v-260C566.9,68.8,498.1,0,413.5,0z M283.5,438.5c-85.5,0-155-69.5-155-155s69.5-155,155-155s155,69.5,155,155
	S368.9,438.5,283.5,438.5z M442.2,165c-25.3,0-45.8-20.5-45.8-45.8s20.5-45.8,45.8-45.8S488,93.9,488,119.2
	C488,144.5,467.4,165,442.2,165z"/>
<path class="st0" d="M283.5,161.7c-67.1,0-121.8,54.6-121.8,121.8c0,67.1,54.6,121.8,121.8,121.8c67.1,0,121.8-54.6,121.8-121.8
	C405.2,216.3,350.6,161.7,283.5,161.7z"/>
<path class="st0" d="M442.2,106.6c-6.9,0-12.6,5.6-12.6,12.6s5.6,12.6,12.6,12.6c6.9,0,12.6-5.6,12.6-12.6
	C454.8,112.3,449.1,106.6,442.2,106.6z"/>
</svg>
