<svg id="圖層_1" data-name="圖層 1" xmlns="http://www.w3.org/2000/svg" viewBox="0 0 566.93 566.93"><defs><style>.cls-1{fill:#dec394;}</style></defs><title>instagram_hover</title><path class="cls-1" d="M413.47,0h-260C68.84,0,0,68.84,0,153.46v260c0,84.62,68.84,153.46,153.46,153.46h260c84.62,0,153.46-68.84,153.46-153.46v-260C566.93,68.84,498.09,0,413.47,0Zm-130,438.48c-85.47,0-155-69.54-155-155s69.54-155,155-155,155,69.54,155,155S368.94,438.48,283.46,438.48ZM442.19,165A45.81,45.81,0,1,1,488,119.2,45.86,45.86,0,0,1,442.19,165Z"/><path class="cls-1" d="M283.46,161.69A121.78,121.78,0,1,0,405.24,283.46,121.92,121.92,0,0,0,283.46,161.69Z"/><path class="cls-1" d="M442.19,106.63a12.57,12.57,0,1,0,12.57,12.57A12.59,12.59,0,0,0,442.19,106.63Z"/></svg>