<svg width="512" height="512" viewBox="0 0 512 512" fill="none" xmlns="http://www.w3.org/2000/svg">
<path fill-rule="evenodd" clip-rule="evenodd" d="M28.4444 0H128C143.644 0 156.444 12.8 156.444 28.4444C156.444 64 162.133 98.1333 172.658 129.991C175.787 139.947 173.511 151.04 165.547 159.004L102.969 221.582C143.929 302.08 209.92 367.787 290.418 409.031L352.996 346.453C358.684 341.049 365.796 338.204 373.191 338.204C376.036 338.204 379.164 338.489 382.009 339.627C413.867 350.151 448.284 355.84 483.556 355.84C499.2 355.84 512 368.64 512 384.284V483.556C512 499.2 499.2 512 483.556 512C216.462 512 0 295.538 0 28.4444C0 12.8 12.8 0 28.4444 0ZM100.693 56.889C102.4 82.2045 106.666 106.951 113.493 130.56L79.3598 164.693C67.6976 130.56 60.302 94.4356 57.742 56.889H100.693ZM381.155 398.792C405.333 405.618 430.08 409.885 455.111 411.592V453.974C417.564 451.414 381.44 444.018 347.022 432.641L381.155 398.792Z" fill="black" fill-opacity="0.54"/>
</svg>
