<svg width="485" height="692" viewBox="0 0 485 692" fill="none" xmlns="http://www.w3.org/2000/svg">
<path fill-rule="evenodd" clip-rule="evenodd" d="M242.083 0C108.246 0 0 108.246 0 242.083C0 423.646 242.083 691.667 242.083 691.667C242.083 691.667 484.167 423.646 484.167 242.083C484.167 108.246 375.921 0 242.083 0ZM69.1666 242.082C69.1666 146.632 146.633 69.165 242.083 69.165C337.533 69.165 415 146.632 415 242.082C415 341.682 315.4 490.736 242.083 583.765C170.15 491.427 69.1666 340.644 69.1666 242.082ZM155.625 242.083C155.625 194.334 194.334 155.625 242.083 155.625C272.972 155.625 301.514 172.104 316.958 198.854C332.403 225.604 332.403 258.562 316.958 285.312C301.514 312.063 272.972 328.542 242.083 328.542C194.334 328.542 155.625 289.833 155.625 242.083Z" fill="black" fill-opacity="0.54"/>
</svg>
